<?xml version="1.0" encoding="UTF-8" standalone="no"?>
<!-- Generator: Adobe Illustrator 21.1.0, SVG Export Plug-In . SVG Version: 6.00 Build 0)  -->
<svg id="Layer_1" style="enable-background:new 0 0 208 104" xmlns="http://www.w3.org/2000/svg" xml:space="preserve" viewBox="0 0 208 104" version="1.1" y="0px" x="0px" xmlns:xlink="http://www.w3.org/1999/xlink">
<style type="text/css">
	.st0{fill:#222222;}
</style>
		<path class="st0" d="m134.6 63.7l12.3-11.8-17 0.4 6.9-15.5-15.5 6.9 0.5-17-11.7 12.3-6.1-15.9-6.1 15.9-11.5-12.2 0.5 17-15.5-6.9 6.9 15.5-17-0.5 12.3 11.9-20 6.3h22.3c0.4-16 12.8-27.2 28-27.2s27.6 11.2 28 27.2h22.9l-20.2-6.4z"/>
		<path class="st0" d="m128.2 67.7c0.2-0.3 0.3-0.6 0.5-0.9 0.4-0.7 0.8-1.4 1.4-1.9-0.8-0.2-1.5-0.8-2.1-1.3-0.2-0.2-0.5-0.4-0.7-0.6l0.3-0.9c0.2-0.8 0.5-1.6 1-2.2-0.8 0-1.6-0.5-2.3-0.9-0.3-0.1-0.5-0.3-0.8-0.4 0.1-0.3 0.1-0.7 0.1-1 0.1-0.8 0.2-1.6 0.6-2.3-0.8 0.1-1.6-0.1-2.5-0.4-0.3-0.1-0.6-0.2-0.9-0.2 0-0.3 0-0.6-0.1-0.9-0.1-0.9-0.2-1.7 0.1-2.5-0.7 0.2-1.6 0.2-2.4 0.1-0.3 0-0.7-0.1-1-0.1-0.1-0.3-0.2-0.6-0.2-0.9-0.2-0.8-0.5-1.7-0.4-2.5-0.7 0.4-1.5 0.5-2.3 0.6-0.3 0-0.7 0.1-1 0.1-0.1-0.3-0.3-0.5-0.4-0.8-0.4-0.8-0.8-1.5-0.9-2.3-0.6 0.5-1.4 0.7-2.2 1-0.3 0.1-0.6 0.2-0.9 0.3-0.2-0.2-0.4-0.5-0.6-0.7-0.5-0.7-1.1-1.3-1.3-2.1-0.5 0.6-1.2 1-1.9 1.4-0.3 0.2-0.6 0.3-0.9 0.5-0.2-0.2-0.4-0.4-0.7-0.6-0.7-0.5-1.3-1.1-1.7-1.8-0.4 0.7-1 1.2-1.6 1.8-0.3 0.2-0.5 0.4-0.8 0.7-0.2-0.2-0.5-0.3-0.8-0.4-0.7-0.4-1.5-0.8-2-1.5-0.2 0.7-0.8 1.4-1.3 2-0.2 0.3-0.4 0.5-0.6 0.8-0.3-0.1-0.6-0.2-0.9-0.3-0.8-0.2-1.6-0.5-2.3-1-0.1 0.8-0.5 1.5-0.8 2.3-0.2 0.3-0.3 0.6-0.4 0.9-0.3 0-0.6-0.1-0.9-0.1-0.8-0.1-1.7-0.2-2.4-0.6 0.1 0.8-0.2 1.6-0.4 2.4-0.1 0.3-0.2 0.7-0.3 1-0.3 0-0.6 0-0.9 0.1-0.8 0.1-1.7 0.2-2.5-0.1 0.2 0.7 0.2 1.6 0.1 2.4 0 0.3-0.1 0.7-0.1 1-0.3 0.1-0.6 0.2-0.9 0.2-0.8 0.2-1.7 0.5-2.5 0.4 0.4 0.7 0.5 1.5 0.6 2.3 0 0.3 0.1 0.7 0.1 1-0.3 0.1-0.5 0.3-0.8 0.4-0.8 0.4-1.5 0.8-2.3 0.9 0.5 0.6 0.7 1.4 1 2.2 0.1 0.3 0.2 0.7 0.3 0.9-0.2 0.2-0.5 0.4-0.7 0.6-0.7 0.5-1.3 1.1-2.1 1.3 0.6 0.5 1 1.2 1.4 1.9 0.2 0.3 0.3 0.6 0.5 0.9-0.2 0.2-0.4 0.7-0.6 0.9 0.1 0.2-0.3 0.2-0.7 1.2h51.4c-0.4-1-0.7-1-1.1-1.4-0.1-0.2-0.3-0.7-0.5-0.9z"/>
		<path class="st0" d="m68.2 28.6l-1.1-1.7 1.5-1-4.3-6.7-1.5 1 1.5 2.3-1.7 1.1-2.6-4 9.1-5.9 2.6 4-1.7 1.2-1.5-2.3-1.6 1 4.3 6.7 1.5-1 1.1 1.7-5.6 3.6z"/>
		<path class="st0" d="m76.1 23.5l-0.8-1.9 1.4-0.6-3.1-7.3-1.4 0.6-0.8-1.9 5.3-2.2 0.8 1.9-1.2 0.5 1 2.4 3-1.3-1-2.4-1.1 0.5-0.8-1.9 5.3-2.2 0.8 1.9-1.4 0.6 3.1 7.3 1.4-0.6 0.8 1.9-5.3 2.2-0.7-2 1.1-0.5-1.3-3-3 1.3 1.3 3 1.2-0.5 0.8 1.9-5.4 2.3z"/>
		<path class="st0" d="m88 18.6l-0.4-2 1.4-0.3-1.6-7.8-1.4 0.3-0.4-2 10.3-2.1 0.8 3.7-2.2 0.5-0.4-1.7-3.6 0.8 0.6 2.7 2.9-0.6 0.4 2-2.9 0.6 0.6 3.1 3.6-0.8-0.4-1.8 2.2-0.5 0.8 3.7-10.3 2.2z"/>
		<path class="st0" d="m103.1 16l0.2-2 1.5 0.2 0.8-7.9-1.5-0.2 0.2-2 5.4 0.6c1.2 0.1 2.1 0.3 2.7 0.5s1 0.6 1.4 1.2 0.5 1.2 0.4 2c-0.1 1.2-0.8 1.9-1.9 2.3 1.4 0.7 2 1.7 1.8 3.1-0.1 0.8-0.4 1.4-0.9 2-0.5 0.5-1.1 0.8-1.8 1-0.7 0.1-1.7 0.1-3 0l-5.3-0.8zm4.7-1.5l0.9 0.1c0.8 0.1 1.4 0 1.7-0.2s0.5-0.6 0.6-1.2-0.1-1-0.4-1.3-0.8-0.5-1.6-0.5l-0.9-0.1-0.3 3.2zm0.6-5.2l0.9 0.1c0.6 0.1 1.1 0 1.4-0.2s0.5-0.5 0.5-1c0.1-0.5-0.1-0.8-0.3-1-0.3-0.2-0.7-0.4-1.4-0.4l-0.8-0.1-0.3 2.6z"/>
		<path class="st0" d="m114.7 17.4l0.6-1.9 1.4 0.4 2.3-7.6-1.4-0.4 0.6-1.9 10.1 3.1-1.1 3.6-2.2-0.7 0.5-1.7-3.5-1.1-0.8 2.6 2.9 0.9-0.6 1.9-2.9-0.9-0.9 3 3.5 1.1 0.5-1.7 2.2 0.7-1.1 3.6-10.1-3z"/>
		<path class="st0" d="m125.6 20.9l1.9-3.6 1.8 0.9c-0.3 0.7-0.4 1.2-0.3 1.7 0.2 0.5 0.4 0.8 0.9 1.1 0.3 0.2 0.7 0.2 1 0.1s0.6-0.3 0.8-0.6 0.2-0.7 0.1-1-0.4-0.8-0.8-1.4c-0.9-1.2-1.5-2.2-1.7-2.9s-0.1-1.4 0.3-2.2c0.5-0.9 1.2-1.5 2-1.7s1.6-0.1 2.4 0.3 1.3 1.1 1.4 2l0.5-0.9 1.8 0.9-1.7 3.4-1.8-0.9c0.2-0.5 0.2-1 0.1-1.4s-0.4-0.7-0.8-0.9c-0.3-0.2-0.6-0.2-0.9-0.2-0.3 0.1-0.5 0.2-0.6 0.5-0.1 0.2-0.1 0.5-0.1 0.8 0.1 0.3 0.4 0.8 1 1.6s1 1.4 1.3 1.9 0.4 1 0.4 1.6-0.1 1.2-0.5 1.8c-0.6 1-1.3 1.7-2.2 1.9s-1.7 0.1-2.6-0.3c-0.9-0.5-1.5-1.2-1.6-2.2l-0.5 0.9-1.6-1.2z"/>
		<path class="st0" d="m134.8 26.1l1.3-1.6 1.4 1.1 5-6.1-1.4-1.1-1.8 2.2-1.6-1.3 3.1-3.7 8.4 6.9-3.1 3.7-1.6-1.3 1.8-2.2-1.4-1.2-5 6.1 1.4 1.1-1.3 1.6-5.2-4.2z"/>
		<path class="st0" d="m44.3 86.6c0.6 0.6 0.1 1.2-0.3 1.7-1.5 1.9-3.4 3.5-5.5 4.7-1 0.6-2 1-3.1 1.4l-1.6 0.5c-0.4 0.2-0.6 0.7-1 1.1-2.3 2.7-6 4.3-9.6 4.9-1.6 0.2-3.3 0.3-4.8 0.1-1.4-0.2-3.3-1-3.3-2.7 0-2.1 1.9-3.1 3.7-3.4 2.4-0.5 4.8-0.4 7.2-0.6 1.4-0.1 2.8-0.2 4.2-0.5l1.2-0.2c0.3-0.1 0.8-0.1 1-0.3 0.3-0.6 0.6-1.2 0.8-1.9 0.8-2.4 0.4-5-0.4-7.3-1.9-5.4-5.7-10-8-15.2l-6.6 10.1-9.3 14.2-3.5 5.2c-0.1 0.3-0.3 0.6-0.7 0.6-0.8 0.1-1.2-0.8-0.8-1.4l1-1.5 8-12.1c2.6-3.9 5.1-7.9 7.6-11.7l2.3-3.5 1.1-1.8c0.2-0.2-0.1-0.7-0.2-1-0.2-0.3-0.2-0.6-0.3-1-0.7-2.7-0.6-5.5 0.7-8 0.9-1.9 2.2-3.7 3.9-5 1.1-0.8 2.7-1.4 4.1-1 1 0.3 1.9 1.2 1.9 2.3 0.2 1.1-0.2 2.3-0.9 3.4-0.6 1-1.3 1.9-1.9 2.8l-2.2 3.1-2.3 3.5-0.7 1c-0.2 0.2 0.2 0.6 0.2 0.9l0.8 1.7c1.3 2.6 2.8 5.1 4.3 7.6 2.7 4.6 5.5 10.1 3.4 15.5 3.2-1.1 6-3.1 8.1-5.9 0.5-0.6 1.2-0.7 1.5-0.3zm-24.4 12.6c1.2 0.1 2.4-0.1 3.5-0.3 2.7-0.6 5.3-1.5 7.3-3.4-3.1 0.5-6.1 0.6-9.2 0.7-1.1 0.1-2.4 0.2-3.5 0.6-0.6 0.2-1.8 1.2-0.8 1.8 0.9 0.5 1.9 0.6 2.7 0.6zm5.4-34.3c0.2-0.3 0.4-0.6 0.6-1 1.4-2.2 2.9-4.3 4.4-6.4 0.6-0.9 1.4-1.8 1.8-2.8 0.2-0.9 0.3-2.1-0.8-2.2-1.4-0.2-2.9 1.2-3.8 2.3-1.6 1.9-2.8 4.4-2.8 7 0.2 1 0.3 2.1 0.6 3.1z"/>
		<path class="st0" d="m72.3 86.8c0.2 0.5 0 0.9-0.2 1.2l-1.5 1.8c-1.4 1.5-2.8 3.1-4.3 4.5-1.3 1.3-2.7 2.5-4.3 3.4-1.4 0.7-3.6 1.4-4.6-0.2-0.6-1.1-0.3-2.7 0-4 0.6-2.3 1.5-4.6 2.5-6.8-2.3 3.3-4.9 6.6-8 9.3-1.4 1.2-3.1 2.3-5 2.6-1.6 0.2-3.1-0.6-3.4-2.3-0.2-1.5 0.2-3.2 0.7-4.7 0.7-2.3 1.8-4.7 2.7-7l-1.9 2.3c-0.5 0.6-1.1 1.7-2 1.1s-0.2-1.4 0.3-1.9l1.6-2c1.7-2.2 3.4-4.3 4.9-6.5 0.2-0.2 0.2-0.6 0.5-0.8 0.3-0.3 0.9-0.3 1.3 0 0.4 0.4 0.2 0.9 0 1.3-0.9 2.2-1.8 4.4-2.7 6.6-1 2.1-1.9 4.3-2.7 6.4-0.3 0.9-0.6 1.8-0.8 2.8-0.2 0.6-0.2 1.3-0.1 1.9 0.3 1.3 1.9 0.7 2.8 0.3 1.2-0.6 2.3-1.4 3.3-2.4 2.7-2.5 4.9-5.5 7-8.4 1.8-2.7 3.6-5.5 5.2-8.3 0.2-0.4 0.5-0.7 1-0.7 0.4 0 0.8 0.3 0.9 0.7 0.1 0.3-0.2 0.7-0.2 1-0.6 1.2-1 2.4-1.5 3.6-1.1 2.9-2.4 5.7-3.5 8.5-0.6 1.7-1.4 3.4-1.5 5.1-0.1 0.3-0.2 1 0.2 1.3 0.3 0.2 0.9 0 1.1-0.1l0.9-0.4c1.8-1 3.2-2.4 4.7-3.8 1.8-1.8 3.5-3.7 5.1-5.7 0.5-0.3 1.2-0.2 1.5 0.3z"/>
		<path class="st0" d="m119.2 88.4c-1 1.2-1.9 2.4-3 3.6-1.7 1.9-3.5 3.9-5.8 5.2-1.4 0.8-3.7 1.5-4.9 0.1-1.3-1.4-0.5-3.8 0.1-5.3 0.8-2.5 2-4.8 3-7.2 0.4-1 0.9-2.1 1.2-3.2 0.2-0.7 0.5-1.6 0.4-2.4-0.2-1.7-2.4-1-3.4-0.6-1.8 0.8-3.2 2.1-4.6 3.4-1.6 1.6-3.1 3.4-4.4 5.2-0.7 0.9-1.4 1.9-2 2.8l-0.9 1.4c-0.3 0.6-0.5 1.1-0.7 1.8-0.4 1.1-0.9 2.3-1.4 3.3-0.3 0.6-0.6 1.3-1.1 1.7-0.4 0.3-1 0.3-1.4 0-0.4-0.4-0.3-1-0.2-1.4 0.2-0.8 0.6-1.5 1-2.3l0.9-1.7c0.3-0.6 0.7-1.1 1-1.8 0.4-1.2 0.8-2.4 1.1-3.7 0.6-2.3 1.2-4.7 1-7.1-0.1-1-0.4-2.3-1.5-2.3-0.5 0-1 0.2-1.4 0.3-1.2 0.6-2.3 1.4-3.1 2.4-2.6 2.6-4.6 5.7-6.5 8.8l-2.6 4.7-1.1 2.1c-0.2 0.5-0.5 1.3-0.9 1.8-0.4 0.4-1 0.4-1.4 0-0.2-0.4-0.2-0.8 0-1.1l1-2.2c1-2.3 2.2-4.4 3.1-6.7 0.7-1.7 1.4-3.4 1.8-5.2 0.3-1.1 0.9-3.1-0.1-4-0.4-0.4-0.9-0.2-1.3 0-0.9 0.4-1.6 1-2.3 1.7-0.9 0.8-1.6 1.7-2.4 2.6l-2.8 3.2-1 1.2c-0.2 0.3-0.5 0.6-1 0.6-0.9-0.1-1.1-1-0.6-1.6l0.7-0.8 2.7-3.2c1.5-1.7 2.9-3.5 4.8-4.7 1.3-1 3-1.7 4.3-0.4 1.8 1.6 1 4.6 0.5 6.6 1.4-1.9 2.8-3.8 4.6-5.3 1.3-1.1 2.8-2.3 4.6-2.5 1.9-0.1 3.2 1.3 3.5 3.1 0.4 2.3-0.1 4.7-0.6 7 1.8-2.5 3.9-5 6.4-7 1.6-1.4 3.5-2.7 5.6-2.9 1-0.1 2.1 0 2.8 0.6 0.6 0.6 0.9 1.5 0.9 2.3 0 2.5-1.2 4.9-2.1 7.1-1 2.3-2 4.4-2.7 6.8-0.2 0.7-0.6 1.6-0.4 2.4 0.1 0.7 0.7 0.7 1.4 0.6 1.5-0.3 2.9-1.6 4-2.7 1.5-1.4 2.9-3 4.3-4.6l1.7-2.1c0.4-0.5 1-1.3 1.7-0.7 1 0.9 0 1.8-0.5 2.3z"/>
		<path class="st0" d="m166.7 88.4c-1 1.2-1.9 2.4-3 3.6-1.7 1.9-3.5 3.9-5.8 5.2-1.4 0.8-3.7 1.5-4.9 0.1-1.3-1.4-0.5-3.8 0.1-5.3 0.8-2.5 2-4.8 3-7.2 0.4-1 0.9-2.1 1.2-3.2 0.2-0.7 0.5-1.6 0.4-2.4-0.2-1.7-2.4-1-3.4-0.6-1.8 0.8-3.2 2.1-4.6 3.4-1.6 1.6-3.1 3.4-4.4 5.2-0.7 0.9-1.4 1.9-2 2.8l-0.9 1.4c-0.3 0.6-0.5 1.1-0.7 1.8-0.4 1.1-0.9 2.3-1.4 3.3-0.3 0.6-0.6 1.3-1.1 1.7-0.4 0.3-1 0.3-1.4 0-0.4-0.4-0.3-1-0.2-1.4 0.2-0.8 0.6-1.5 1-2.3l0.9-1.7c0.3-0.6 0.7-1.1 1-1.8 0.4-1.2 0.8-2.4 1.1-3.7 0.6-2.3 1.2-4.7 1-7.1-0.1-1-0.4-2.3-1.5-2.3-0.5 0-1 0.2-1.4 0.3-1.2 0.6-2.3 1.4-3.1 2.4-2.6 2.6-4.6 5.7-6.5 8.8l-2.7 4.6-1.1 2.1c-0.2 0.5-0.5 1.3-0.9 1.8-0.4 0.4-1 0.4-1.4 0-0.2-0.4-0.2-0.8 0-1.1l1-2.2c1-2.3 2.2-4.4 3.1-6.7 0.7-1.7 1.4-3.4 1.9-5.2 0.3-1.1 0.9-3.1-0.1-4-0.4-0.4-0.9-0.2-1.3 0-0.9 0.4-1.6 1-2.3 1.7-0.9 0.8-1.6 1.7-2.4 2.6l-2.8 3.2-1 1.2c-0.2 0.3-0.5 0.6-1 0.6-0.9-0.1-1.1-1-0.6-1.6l0.7-0.8 2.7-3.2c1.5-1.7 2.9-3.5 4.8-4.7 1.3-1 3-1.7 4.3-0.4 1.8 1.6 1 4.6 0.5 6.6 1.4-1.9 2.8-3.8 4.6-5.3 1.3-1.1 2.8-2.3 4.6-2.5 1.9-0.1 3.2 1.3 3.5 3.1 0.4 2.3-0.1 4.7-0.6 7 1.8-2.5 3.9-5 6.4-7 1.6-1.4 3.5-2.7 5.6-2.9 1-0.1 2.1 0 2.8 0.6 0.6 0.6 0.9 1.5 0.9 2.3 0 2.5-1.2 4.9-2.1 7.1-1 2.3-2 4.4-2.7 6.8-0.2 0.7-0.6 1.6-0.4 2.4 0.1 0.7 0.7 0.7 1.4 0.6 1.5-0.3 2.9-1.6 4-2.7 1.5-1.4 2.9-3 4.3-4.6l1.7-2.1c0.4-0.5 1-1.3 1.7-0.7 0.9 1 0 1.9-0.5 2.4z"/>
		<path class="st0" d="m183.8 88.5l-1.9 2.2c-1.1 1.2-2.3 2.3-3.5 3.5-2.6 2.2-6 4.4-9.5 4-1.7-0.2-3.1-1.1-3.9-2.7-0.8-1.8-0.6-4-0.2-6 1-4 3.2-8 6.3-10.8 1.3-1.2 2.8-2.3 4.5-2.6 1.9-0.3 4 0.2 4.7 2.1 0.8 2.9-1.9 5.4-4 6.8-1.8 1.1-3.8 1.9-5.8 2.6-0.6 0.2-1.3 0.4-1.9 0.6l-1 0.2c-0.2 0-0.3 0.1-0.5 0.1-0.1 0-0.1 0.3-0.2 0.3-0.4 1.3-0.6 2.7-0.6 4 0.1 0.9 0.2 1.9 0.9 2.7 0.6 0.5 1.3 0.8 2 0.8 1.5 0.2 3.1-0.4 4.4-1 1.9-1 3.5-2.4 5.1-3.9 1-0.9 1.9-1.9 2.7-2.9l1.4-1.8c0.3-0.4 0.9-0.5 1.3-0.2 0.8 0.6 0.1 1.4-0.3 2zm-12.2-7.8c-1.5 1.7-2.7 3.6-3.7 5.7 3.3-0.8 7-2.1 9.3-4.6 0.6-0.6 1.2-1.4 1.4-2.3 0.2-1.4-1.2-1.8-2.4-1.6-1.8 0.1-3.4 1.5-4.6 2.8z"/>
		<path class="st0" d="m205.1 87.6l-0.8 1-2.8 3.1c-1.5 1.8-3.1 3.5-4.9 5.1-1.1 1-2.4 2-3.9 2.2-2.3 0.2-3.2-2.1-3-3.9 0.4-2.6 2-4.9 3.4-7.1 0.7-1.2 1.4-2.3 2.2-3.6 0.4-0.8 1.1-2 1-3-0.1-0.6-1.9-0.3-2.3-0.3-1-0.1-2.1-0.3-2.5-1.4-1.8 2.3-3.7 4.3-5.6 6.4l-1.5 1.6c-0.4 0.4-0.8 0.7-1.4 0.4-1.4-0.7 0.6-2.3 1.1-2.8 1.6-1.7 3.1-3.5 4.7-5.2l2.6-3.1 1.2-1.4c0.6-0.7 1.7-0.2 1.6 0.6-0.1 0.6-0.5 1-0.7 1.6-0.1 0.3-0.2 0.6-0.2 0.9-0.1 0.4-0.1 0.5 0.4 0.6 1 0.1 2.1-0.2 3.1 0.2 1.1 0.4 1.5 1.5 1.4 2.6-0.2 1.1-0.7 2.3-1.3 3.2-0.6 1.3-1.4 2.4-2.2 3.6-1.1 1.9-2.6 3.9-3.1 6.2-0.1 0.6-0.2 1.9 0.6 2.1 0.5 0.2 1.2-0.2 1.6-0.5 1.7-1 3.1-2.6 4.4-4l5.6-6.2c0.8-1 2.1 0.2 1.3 1.1z"/>
</svg>
